<?xml version="1.0" encoding="UTF-8"?>
<!DOCTYPE svg PUBLIC "-//W3C//DTD SVG 1.1//EN" "http://www.w3.org/Graphics/SVG/1.1/DTD/svg11.dtd">
<svg xmlns="http://www.w3.org/2000/svg" version="1.1" width="64px" height="64px" style="shape-rendering:geometricPrecision; text-rendering:geometricPrecision; image-rendering:optimizeQuality; fill-rule:evenodd; clip-rule:evenodd" xmlns:xlink="http://www.w3.org/1999/xlink">
<g><path style="opacity:0.892" fill="#09cf22" d="M 13.5,1.5 C 15.8863,2.37331 17.8863,3.87331 19.5,6C 21.1341,6.49351 22.8008,6.66018 24.5,6.5C 24.3002,9.80433 25.6336,12.3043 28.5,14C 26.6989,16.3852 26.3656,18.8852 27.5,21.5C 26.5529,23.4002 25.0529,24.7335 23,25.5C 22.9265,29.1079 21.4265,30.1079 18.5,28.5C 16.5634,29.2604 14.7301,30.2604 13,31.5C 11.3229,27.9489 8.48956,26.6155 4.5,27.5C 4.78522,25.712 4.45189,24.0453 3.5,22.5C 0.00555205,20.8275 -0.327781,18.4942 2.5,15.5C -0.482287,12.4446 0.184379,10.4446 4.5,9.5C 5.45189,7.95467 5.78522,6.28801 5.5,4.5C 7.14387,4.28649 8.64387,4.61983 10,5.5C 11.3756,4.29493 12.5423,2.9616 13.5,1.5 Z M 11.5,10.5 C 20.8176,10.6546 22.8176,14.488 17.5,22C 12.3455,23.6773 9.34548,21.8439 8.5,16.5C 8.9837,14.1992 9.9837,12.1992 11.5,10.5 Z"/></g>
<g><path style="opacity:0.789" fill="#09cf23" d="M 49.5,11.5 C 51.1667,11.5 52.8333,11.5 54.5,11.5C 54.5,12.5 54.5,13.5 54.5,14.5C 55.8333,14.5 57.1667,14.5 58.5,14.5C 58.5,16.1667 58.5,17.8333 58.5,19.5C 57.1667,19.5 55.8333,19.5 54.5,19.5C 54.5,20.8333 54.5,22.1667 54.5,23.5C 52.8333,23.5 51.1667,23.5 49.5,23.5C 49.5,22.1667 49.5,20.8333 49.5,19.5C 48.5,19.5 47.5,19.5 46.5,19.5C 46.5,17.8333 46.5,16.1667 46.5,14.5C 47.5,14.5 48.5,14.5 49.5,14.5C 49.5,13.5 49.5,12.5 49.5,11.5 Z"/></g>
<g><path style="opacity:0.882" fill="#09d022" d="M 35.5,-0.5 C 37.1667,-0.5 38.8333,-0.5 40.5,-0.5C 37.6678,11.4865 35.1678,23.4865 33,35.5C 37.4553,29.3507 43.2886,27.3507 50.5,29.5C 44.6123,38.8817 47.1123,45.215 58,48.5C 59.6995,47.5939 61.5328,47.2606 63.5,47.5C 63.5,47.8333 63.5,48.1667 63.5,48.5C 61.628,51.5287 58.9614,53.6954 55.5,55C 50.1667,55.6667 44.8333,55.6667 39.5,55C 33.689,51.5503 30.8557,46.3836 31,39.5C 28.847,47.4439 27.0137,55.4439 25.5,63.5C 23.8333,63.5 22.1667,63.5 20.5,63.5C 25.5,42.1667 30.5,20.8333 35.5,-0.5 Z M 48.5,50.5 C 41.5544,49.2826 39.221,45.2826 41.5,38.5C 42.3307,43.5109 44.6641,47.5109 48.5,50.5 Z"/></g>
<g><path style="opacity:0.795" fill="#09d023" d="M 6.5,39.5 C 8.16667,39.5 9.83333,39.5 11.5,39.5C 11.5,40.8333 11.5,42.1667 11.5,43.5C 12.5,43.5 13.5,43.5 14.5,43.5C 14.5,45.1667 14.5,46.8333 14.5,48.5C 13.5,48.5 12.5,48.5 11.5,48.5C 11.5,49.5 11.5,50.5 11.5,51.5C 9.83333,51.5 8.16667,51.5 6.5,51.5C 6.5,50.5 6.5,49.5 6.5,48.5C 5.16667,48.5 3.83333,48.5 2.5,48.5C 2.5,46.8333 2.5,45.1667 2.5,43.5C 3.83333,43.5 5.16667,43.5 6.5,43.5C 6.5,42.1667 6.5,40.8333 6.5,39.5 Z"/></g>
</svg>
